External Loads File
version=1
nRows=38
nColumns=13
Range=5.000000e-03-10 seconds
endheader
time 	forceRightX 	forceRightY 	forceRightZ 	pointRightX 	pointRightY 	pointRightZ 	forceLeftX 	forceLeftY 	forceLeftZ 	pointLeftX 	pointLeftY 	pointLeftZ 		
7.505000 -47.972339 93.544353 -0.000000 0.320458 0.478112 -0.140086 245.846624 402.667357 -0.000000 0.244151 0.155354 -0.376336
7.510000 -45.233522 94.840343 -0.000000 0.329243 0.478289 -0.139681 243.413768 359.159012 -0.000000 0.235243 0.156560 -0.376636
7.515000 -42.299319 97.089959 -0.000000 0.337781 0.477863 -0.139315 239.192402 318.288597 -0.000000 0.226578 0.158462 -0.377008
7.520000 -39.178603 100.816461 -0.000000 0.346096 0.476551 -0.138755 233.270563 279.609806 -0.000000 0.218209 0.160870 -0.377376
7.525000 -35.974086 106.485112 -0.000000 0.353992 0.474896 -0.138112 225.566891 243.103119 -0.000000 0.210131 0.164062 -0.377532
7.530000 -32.677334 114.558129 -0.000000 0.361552 0.472442 -0.137402 216.427831 208.718995 -0.000000 0.202355 0.167777 -0.377721
7.535000 -29.414047 125.406161 -0.000000 0.368586 0.469581 -0.136792 205.981870 176.945789 -0.000000 0.194938 0.172185 -0.377926
7.540000 -26.131087 139.379572 -0.000000 0.375176 0.465871 -0.136154 194.784173 148.127746 -0.000000 0.187895 0.177222 -0.377934
7.545000 -22.960607 156.653337 -0.000000 0.381497 0.461682 -0.135259 183.258028 122.953401 -0.000000 0.181186 0.182776 -0.377991
7.550000 -20.131800 177.231222 -0.000000 0.387203 0.456484 -0.134428 171.932161 102.082452 -0.000000 0.174822 0.188853 -0.378159
7.555000 -18.196219 200.947546 -0.000000 0.392436 0.450887 -0.133549 161.250806 86.253872 -0.000000 0.168745 0.195263 -0.378257
7.560000 -17.552663 227.542226 -0.000000 0.397063 0.444603 -0.132702 151.740070 75.779623 -0.000000 0.163015 0.202204 -0.378479
7.565000 -18.471528 256.632220 -0.000000 0.401637 0.437772 -0.132306 143.785041 70.707886 -0.000000 0.157608 0.209553 -0.378536
7.570000 -21.676218 287.682894 -0.000000 0.405653 0.430546 -0.131754 137.458009 71.143684 -0.000000 0.152557 0.217316 -0.378675
7.575000 -27.384499 320.107359 -0.000000 0.409396 0.422959 -0.131142 132.822105 76.668924 -0.000000 0.147948 0.225442 -0.378733
7.580000 -34.444381 353.408373 -0.000000 0.412926 0.413654 -0.130793 130.141985 86.181278 -0.000000 0.143739 0.233841 -0.378693
7.585000 -44.685227 386.839625 -0.000000 0.415896 0.404888 -0.130462 128.899710 99.545823 -0.000000 0.140021 0.242593 -0.378481
7.590000 -56.462865 420.034326 -0.000000 0.418766 0.395568 -0.130177 129.374340 115.093375 -0.000000 0.136802 0.251705 -0.377960
7.595000 -70.426413 452.449620 -0.000000 0.420916 0.385960 -0.129944 131.204225 131.787023 -0.000000 0.134311 0.260804 -0.377516
7.600000 -85.431938 483.921947 -0.000000 0.422689 0.376129 -0.129859 134.399257 147.919979 -0.000000 0.132378 0.270131 -0.377428
7.605000 -101.039020 514.412776 -0.000000 0.423998 0.366084 -0.129853 138.576723 162.043047 -0.000000 0.131150 0.279590 -0.377609
7.610000 -116.666266 544.093954 -0.000000 0.424662 0.355878 -0.129982 143.164499 172.858914 -0.000000 0.130636 0.289172 -0.377775
7.615000 -131.432911 573.330702 -0.000000 0.425103 0.345531 -0.130393 147.564952 179.287537 -0.000000 0.130789 0.298853 -0.377876
7.620000 -144.814511 602.467381 -0.000000 0.424896 0.335039 -0.130614 151.066712 180.685651 -0.000000 0.131708 0.308597 -0.377810
7.625000 -155.971892 631.884013 -0.000000 0.424019 0.324549 -0.130830 153.107308 176.759513 -0.000000 0.133318 0.318519 -0.377851
7.630000 -163.624906 661.968606 -0.000000 0.422581 0.313769 -0.131023 153.316128 167.618892 -0.000000 0.135663 0.328469 -0.377786
7.635000 -167.847212 692.617007 -0.000000 0.420877 0.303025 -0.130681 151.101090 154.152237 -0.000000 0.138571 0.338377 -0.377633
7.640000 -167.749816 723.751277 -0.000000 0.417907 0.292392 -0.131125 146.342057 137.340513 -0.000000 0.142088 0.348220 -0.377553
7.645000 -163.110747 754.888877 -0.000000 0.414457 0.281882 -0.131203 139.010718 118.463565 -0.000000 0.146227 0.357844 -0.377305
7.650000 -153.025923 785.470029 -0.000000 0.410600 0.271456 -0.131321 129.440875 98.601797 -0.000000 0.150886 0.367392 -0.376921
7.655000 -138.619453 814.387073 -0.000000 0.406212 0.261396 -0.131499 117.896677 78.885234 -0.000000 0.155931 0.376622 -0.375876
7.660000 -119.051554 840.906274 -0.000000 0.401299 0.251619 -0.131740 105.007226 59.677435 -0.000000 0.161634 0.385623 -0.375582
7.665000 -94.379478 864.130979 -0.000000 0.395884 0.242140 -0.132039 91.226124 41.079018 -0.000000 0.167759 0.394572 -0.375208
7.670000 -65.384508 883.124667 -0.000000 0.389866 0.232914 -0.132045 76.850303 22.946603 -0.000000 0.174394 0.403171 -0.374888
7.675000 -33.720088 897.031772 -0.000000 0.383783 0.224131 -0.132515 62.038443 5.022511 -0.000000 0.181425 0.411741 -0.374515
7.680000 1.179820 905.291634 -0.000000 0.377103 0.215552 -0.132869 46.835119 -13.116304 -0.000000 0.188801 0.420291 -0.374111
7.685000 35.769076 907.491147 -0.000000 0.370024 0.207495 -0.133119 31.211058 -31.507138 -0.000000 0.196551 0.428116 -0.373789
7.690000 69.310856 903.588316 -0.000000 0.362603 0.199780 -0.133430 15.182987 -50.208507 -0.000000 0.204504 0.435211 -0.373538
